<?xml version="1.0" encoding="UTF-8"?>

<svg 
width="37.283mm" 
height="37.29mm" 
version="1.1" 
viewBox="0 0 37.283 37.29" 
xmlns="http://www.w3.org/2000/svg" 
xmlns:cc="http://creativecommons.org/ns#" 
xmlns:dc="http://purl.org/dc/elements/1.1/" 
xmlns:rdf="http://www.w3.org/1999/02/22-rdf-syntax-ns#">
	<metadata>
		<rdf:RDF>
			<cc:Work rdf:about="">
				<dc:format>image/svg+xml</dc:format>

				<dc:type rdf:resource="http://purl.org/dc/dcmitype/StillImage" />

				<dc:title />
			</cc:Work>
		</rdf:RDF>
	</metadata>

	<g transform="translate(-16.042 -21.068)">
		<path d="m53.325 58.355h-37.283v-37.283h37.283z" 
		fill="#393f74" 
		fill-opacity=".98611" />

		<path d="m49.853 30.83q0 3.3189-1.7182 6.0912-1.7182 2.7723-4.998 4.5295-3.2799 1.7572-7.809 2.0695l-1.6791 9.4102q-0.97622 5.4275-5.3102 5.4275-2.3819 0-4.4125-1.4057-1.9912-1.4057-3.2017-4.2952-1.2105-2.8894-1.2105-7.1065 0-7.9263 2.5379-13.432 2.5771-5.5444 6.8723-8.2779 4.3343-2.7723 9.5272-2.7723 3.6706 0 6.2085 1.2885 2.5771 1.2885 3.8654 3.5142 1.3278 2.1866 1.3278 4.9589zm-13.822 8.6683q8.0045-1.0152 8.0045-8.3167 0-2.5771-1.7182-4.1779-1.6791-1.6399-5.2323-1.6399-4.0218 0-7.0283 2.538-2.9674 2.538-4.6073 7.0674-1.6008 4.4904-1.6008 10.269 0 2.4209 0.46856 4.2952 0.50766 1.8742 1.2492 2.9285 0.78105 1.0152 1.4839 1.0152 0.97622 0 1.4839-2.6942l1.2883-7.3796q-1.5226-0.23428-1.3275-0.19524-1.1714-0.19524-1.523-0.70283-0.35049-0.54666-0.35049-1.3666 0-0.85901 0.46856-1.3666 0.50766-0.50759 1.3666-0.50759 0.39034 0 0.58588 0.03905 0.93711 0.15617 1.4444 0.19524 0.50766-3.0456 1.4448-8.1606 0.23612-1.3276 1.0544-1.8742 0.85889-0.58569 1.9912-0.58569 1.2887 0 1.8351 0.50759 0.58588 0.46856 0.58588 1.5228 0 0.62473-0.07746 1.0152z" 
		fill="#e08cdc" 
		stroke-width="3.6894" 
		style="font-feature-settings:normal;font-variant-caps:normal;font-variant-ligatures:normal;font-variant-numeric:normal" 
		/>
	</g>
</svg>