<?xml version="1.0" encoding="UTF-8"?>
<svg 
width="105.7mm"
height="105.7mm"
version="1.1"
viewBox="0 0 105.7 105.7"
xmlns="http://www.w3.org/2000/svg"
xmlns:cc="http://creativecommons.org/ns#"
xmlns:dc="http://purl.org/dc/elements/1.1/"
xmlns:rdf="http://www.w3.org/1999/02/22-rdf-syntax-ns#">
	<metadata>
		<rdf:RDF>
		<cc:Work rdf:about="">
			<dc:format>image/svg+xml</dc:format>
			<dc:type rdf:resource="http://purl.org/dc/dcmitype/StillImage"/>
			<dc:title/>
		</cc:Work>
		</rdf:RDF>
	</metadata>

	<g transform="translate(8387.5 -80.517)">
		<circle cx="-8334.6" cy="133.37" r="52.726" fill="#393f74" fill-opacity=".98611"/>
		<g fill="#e08cdc">
			<g transform="matrix(3.2203 0 0 3.2203 18937 -117.29)">
				<path d="m-8478 74.983q-0.9419 0-1.7039-0.42333-0.7515-0.42333-1.196-1.2382-0.4445-0.8255-0.4445-1.9685 0-1.6087 0.5821-2.8363 0.5927-1.2277 1.5981-1.8944 1.016-0.66675 2.2437-0.66675 0.9419 0 1.6933 0.42333 0.762 0.42333 1.2065 1.2488 0.4445 0.81492 0.4445 1.9579 0 1.6087-0.5927 2.8363-0.582 1.2277-1.598 1.8944-1.0055 0.66675-2.2331 0.66675zm0.1058-1.2488q0.8255 0 1.4499-0.508 0.635-0.508 0.9737-1.4076 0.3387-0.91017 0.3387-2.0532 0-1.2594-0.5292-1.905-0.5292-0.65617-1.3653-0.65617-0.8149 0-1.4393 0.508-0.6244 0.49742-0.9737 1.4076-0.3492 0.89958-0.3492 2.0532 0 1.2594 0.5292 1.9156 0.5291 0.64558 1.3652 0.64558z" style="font-feature-settings:normal;font-variant-caps:normal;font-variant-ligatures:normal;font-variant-numeric:normal"/>
				<path d="m-8467.1 72.57q0.1376 0 0.2116 0.127 0.085 0.127 0.085 0.34925 0 0.42333-0.2011 0.65617-0.4339 0.52917-0.9525 0.91017-0.5186 0.37042-1.0266 0.37042-0.8043 0-1.2276-0.94192-0.4445 0.56092-0.7832 0.75142-0.3281 0.1905-0.7726 0.1905-0.6456 0-1.0689-0.47625-0.4127-0.48683-0.4127-1.2594 0-0.84667 0.3598-1.5663 0.3598-0.73025 0.9842-1.1853 0.635-0.46567 1.4182-0.55033 0.2011-2.0532 0.762-3.5031 0.5715-1.4605 1.4923-1.4605 0.455 0 0.7514 0.41275 0.3069 0.41275 0.3069 1.2488 0 1.1853-0.5821 2.7728t-1.5557 3.2597q0.042 0.61383 0.1799 0.87842 0.1481 0.26458 0.3704 0.26458 0.2857 0 0.5821-0.254 0.2963-0.254 0.7937-0.84667 0.127-0.14817 0.2858-0.14817zm-1.2489-6.5511q-0.201 0-0.4021 0.71967-0.2011 0.70908-0.3493 1.8627-0.1376 1.1536-0.2011 2.413 1.1854-2.5823 1.1854-4.1487 0-0.40217-0.074-0.62442-0.064-0.22225-0.1588-0.22225zm-3.048 7.8952q0.2011 0 0.4022-0.15875 0.2011-0.16933 0.508-0.61383-0.1058-0.5715-0.1058-1.2806 0-0.254 0.021-0.8255-0.582 0.17992-0.9736 0.78317-0.381 0.59267-0.381 1.3229 0 0.77258 0.5291 0.77258z" style="font-feature-settings:normal;font-variant-caps:normal;font-variant-ligatures:normal;font-variant-numeric:normal"/>
				<path d="m-8463.9 72.57q0.1164 0.86783 0.3386 1.7145 0.042 0.13758 0.042 0.28575 0 0.47625-0.5821 0.47625-0.3281 0-0.508-0.17992-0.1694-0.17992-0.3175-0.67733l-0.011-0.04233q-0.4022 0.49742-0.7303 0.66675-0.3175 0.16933-0.7408 0.16933-0.6456 0-1.0689-0.47625-0.4128-0.48683-0.4128-1.2594 0-0.84667 0.3599-1.5663 0.3598-0.71967 0.9842-1.1748 0.6244-0.46567 1.397-0.56092 0.2011-2.0002 0.762-3.4819 0.5715-1.4817 1.5134-1.4817 0.4551 0 0.7515 0.41275 0.3069 0.41275 0.3069 1.2488 0 1.1642-0.5715 2.7199t-1.5134 3.2068zm0.9101-6.5511q-0.3069 0-0.5821 1.5663-0.2645 1.5663-0.3598 3.4078 1.1748-2.54 1.1748-4.1275 0-0.40217-0.074-0.62442-0.063-0.22225-0.1588-0.22225zm-3.048 7.8952q0.2117 0 0.4022-0.15875 0.2011-0.15875 0.508-0.61383-0.1058-0.77258-0.1058-1.5981 0-0.32808 0.011-0.508-0.582 0.16933-0.963 0.77258t-0.381 1.3335q0 0.77258 0.5291 0.77258z" style="font-feature-settings:normal;font-variant-caps:normal;font-variant-ligatures:normal;font-variant-numeric:normal"/>
			</g>

			<g transform="matrix(2.5183 0 0 2.5183 12979 -34.627)">
				<path d="m-8451.5 68.622q0 0.89958-0.4657 1.651-0.4657 0.75142-1.3547 1.2277t-2.1166 0.56092l-0.4551 2.5506q-0.2646 1.4711-1.4393 1.4711-0.6456 0-1.196-0.381-0.5397-0.381-0.8678-1.1642-0.3281-0.78317-0.3281-1.9262 0-2.1484 0.6879-3.6407 0.6985-1.5028 1.8627-2.2437 1.1748-0.75142 2.5823-0.75142 0.9949 0 1.6828 0.34925 0.6985 0.34925 1.0477 0.9525 0.3599 0.59267 0.3599 1.3441zm-3.7465 2.3495q2.1696-0.27517 2.1696-2.2542 0-0.6985-0.4657-1.1324-0.4551-0.4445-1.4182-0.4445-1.0901 0-1.905 0.68792-0.8043 0.68792-1.2488 1.9156-0.4339 1.2171-0.4339 2.7834 0 0.65617 0.127 1.1642 0.1376 0.508 0.3386 0.79375 0.2117 0.27517 0.4022 0.27517 0.2646 0 0.4022-0.73025l0.3492-2.0002q-0.4127-0.0635-0.3598-0.05292-0.3175-0.05292-0.4128-0.1905-0.095-0.14817-0.095-0.37042 0-0.23283 0.127-0.37042 0.1376-0.13758 0.3704-0.13758 0.1058 0 0.1588 0.01058 0.254 0.04233 0.3915 0.05292 0.1376-0.8255 0.3916-2.2119 0.064-0.35983 0.2858-0.508 0.2328-0.15875 0.5397-0.15875 0.3493 0 0.4974 0.13758 0.1588 0.127 0.1588 0.41275 0 0.16933-0.021 0.27517z" style="font-feature-settings:normal;font-variant-caps:normal;font-variant-ligatures:normal;font-variant-numeric:normal"/>
				<path d="m-8450.4 69.3q-0.4445 0-0.6668-0.20108-0.2222-0.21167-0.2222-0.58208t0.2857-0.61383q0.2964-0.254 0.7303-0.254 0.3916 0 0.635 0.1905t0.2434 0.53975q0 0.42333-0.2752 0.67733-0.2751 0.24342-0.7302 0.24342zm-0.085 5.6832q-0.6879 0-1.0054-0.48683-0.3069-0.48683-0.3069-1.2912 0-0.47625 0.1164-1.2171 0.127-0.75142 0.3175-1.397 0.095-0.33867 0.254-0.46567 0.1588-0.127 0.508-0.127 0.5398 0 0.5398 0.35983 0 0.26458-0.2011 1.2277-0.254 1.1642-0.254 1.5769 0 0.3175 0.085 0.48683 0.085 0.16933 0.2858 0.16933 0.1905 0 0.4762-0.26458 0.2858-0.26458 0.762-0.83608 0.127-0.14817 0.2858-0.14817 0.1376 0 0.2117 0.127 0.085 0.127 0.085 0.34925 0 0.42333-0.2011 0.65617-1.0477 1.2806-1.9579 1.2806z" style="font-feature-settings:normal;font-variant-caps:normal;font-variant-ligatures:normal;font-variant-numeric:normal"/>
				<path d="m-8445.4 72.888q0.1376 0 0.2117 0.127 0.085 0.127 0.085 0.34925 0 0.381-0.1799 0.65617-0.2963 0.45508-0.7831 0.70908-0.4763 0.254-1.143 0.254-1.016 0-1.577-0.60325-0.5609-0.61383-0.5609-1.651 0-0.73025 0.3069-1.3547 0.307-0.635 0.8467-1.0054 0.5503-0.37042 1.2383-0.37042 0.6138 0 0.9842 0.37042 0.3704 0.35983 0.3704 0.98425 0 0.73025-0.5291 1.2594-0.5186 0.51858-1.778 0.8255 0.254 0.48683 0.8572 0.48683 0.4339 0 0.7091-0.20108 0.2857-0.20108 0.6562-0.67733 0.127-0.15875 0.2857-0.15875zm-1.7357-1.8521q-0.3915 0-0.6667 0.45508-0.2646 0.45508-0.2646 1.1007v0.02117q0.6244-0.14817 0.9843-0.4445 0.3598-0.29633 0.3598-0.68792 0-0.20108-0.1164-0.3175-0.1059-0.127-0.2964-0.127z" style="font-feature-settings:normal;font-variant-caps:normal;font-variant-ligatures:normal;font-variant-numeric:normal"/>
			</g>

			<g transform="matrix(1.7337 0 0 1.7337 6270.9 43.339)">
				<path d="m-8439.1 75.015q-1.4076 0-2.2543-0.52917-0.8467-0.53975-0.8467-1.6404 0-0.58208 0.2011-0.889 0.2011-0.30692 0.5927-0.30692 0.2857 0 0.4657 0.14817 0.1799 0.14817 0.1799 0.381 0 0.21167-0.032 0.37042 0 0.04233-0.021 0.14817-0.011 0.10583-0.011 0.22225 0 0.47625 0.4762 0.70908 0.4869 0.23283 1.3547 0.23283 0.8996 0 1.4076-0.3175 0.508-0.32808 0.508-0.91017 0-0.35983-0.2329-0.61383-0.2328-0.26458-0.582-0.43392-0.3493-0.17992-0.9843-0.43392-0.8149-0.3175-1.3335-0.60325-0.508-0.28575-0.8784-0.77258-0.3598-0.49742-0.3598-1.2277 0-0.762 0.4021-1.3547 0.4128-0.59267 1.1748-0.92075 0.7726-0.32808 1.8097-0.32808 0.7726 0 1.4182 0.23283 0.6456 0.22225 1.0266 0.68792 0.3916 0.46567 0.3916 1.143 0 0.66675-0.2011 1.0054-0.2011 0.33867-0.5927 0.33867-0.2752 0-0.4657-0.16933-0.1799-0.16933-0.1799-0.40217 0-0.20108 0.032-0.37042 0.032-0.3175 0.032-0.40217 0-0.4445-0.4339-0.67733-0.4339-0.23283-1.0795-0.23283-0.9102 0-1.397 0.33867-0.4762 0.32808-0.4762 0.93133 0 0.40217 0.2434 0.68792 0.254 0.28575 0.6244 0.47625t1.0372 0.45508q0.8043 0.32808 1.2911 0.59267 0.4869 0.26458 0.8255 0.71967 0.3493 0.45508 0.3493 1.1218 0 1.2488-0.9525 1.9262-0.9419 0.66675-2.5294 0.66675z" style="font-feature-settings:normal;font-variant-caps:normal;font-variant-ligatures:normal;font-variant-numeric:normal"/>
				<path d="m-8429 72.57q0.1376 0 0.2116 0.127 0.085 0.127 0.085 0.34925 0 0.42333-0.2011 0.65617-0.4868 0.56092-1.0054 0.92075-0.508 0.35983-1.1642 0.35983-0.5397 0-0.8149-0.30692-0.2751-0.3175-0.2751-0.91017 0-0.29633 0.1481-1.0583 0.1376-0.66675 0.1376-0.92075 0-0.16933-0.1164-0.16933-0.1376 0-0.3916 0.35983-0.254 0.34925-0.508 0.93133-0.254 0.58208-0.4127 1.2277-0.2011 0.84667-0.9949 0.84667-0.3175 0-0.4233-0.22225-0.095-0.23283-0.095-0.8255 0-0.33867 0.011-0.53975l0.011-0.84667q0-1.6298 0.3281-3.3972 0.3387-1.7674 0.9842-2.9633 0.6562-1.2065 1.5664-1.2065 0.4868 0 0.7831 0.42333 0.307 0.41275 0.307 1.0795 0 1.0689-0.6245 2.2225-0.6244 1.143-2.032 2.6776-0.032 0.55033-0.032 1.1324 0.3492-0.89958 0.7726-1.4605 0.4339-0.5715 0.8466-0.81492 0.4234-0.24342 0.7726-0.24342 0.6879 0 0.6879 0.68792 0 0.41275-0.2328 1.4922-0.2011 0.92075-0.2011 1.2171 0 0.42333 0.3069 0.42333 0.2117 0 0.4975-0.254 0.2963-0.26458 0.7831-0.84667 0.127-0.14817 0.2858-0.14817zm-3.1433-6.5405q-0.1905 0-0.4233 0.55033-0.2328 0.53975-0.4551 1.4711-0.2117 0.92075-0.3492 2.0108 0.6561-0.77258 1.0795-1.6828 0.4339-0.91017 0.4339-1.651 0-0.33867-0.074-0.51858-0.074-0.17992-0.2117-0.17992z" style="font-feature-settings:normal;font-variant-caps:normal;font-variant-ligatures:normal;font-variant-numeric:normal"/>
				<path d="m-8424.1 71.681q0.1375 0 0.2116 0.13758 0.074 0.13758 0.074 0.34925 0 0.508-0.3069 0.60325-0.635 0.22225-1.397 0.254-0.2011 0.889-0.7938 1.4288-0.5926 0.52917-1.344 0.52917-0.635 0-1.0901-0.30692-0.4445-0.30692-0.6774-0.81492-0.2328-0.508-0.2328-1.1007 0-0.80433 0.3069-1.4288 0.3069-0.635 0.8467-0.98425 0.5397-0.35983 1.1959-0.35983 0.8043 0 1.2912 0.56092 0.4974 0.55033 0.5821 1.3652 0.4974-0.03175 1.1853-0.21167 0.085-0.02117 0.1482-0.02117zm-3.4714 2.1802q0.3387 0 0.5821-0.27517 0.254-0.27517 0.3387-0.79375-0.3281-0.22225-0.508-0.58208-0.1694-0.35983-0.1694-0.762 0-0.16933 0.032-0.33867h-0.053q-0.4234 0-0.7091 0.41275-0.2752 0.40217-0.2752 1.143 0 0.58208 0.2223 0.889 0.2328 0.30692 0.5397 0.30692z" style="font-feature-settings:normal;font-variant-caps:normal;font-variant-ligatures:normal;font-variant-numeric:normal"/>
				<path d="m-8420.6 71.702q0 0.83608-0.3916 1.5875-0.381 0.74083-1.0266 1.2065-0.635 0.46567-1.3652 0.48683-0.1376 2.0426-0.6245 3.4078-0.4868 1.3758-1.4287 1.3758-0.5715 0-0.8467-0.41275-0.2751-0.41275-0.2751-1.143 0-1.0372 0.4762-2.4236 0.4763-1.3758 1.4711-3.0374 0-1.5452-0.021-2.1484-0.011-0.30692 0.2434-0.48683 0.254-0.17992 0.635-0.17992 0.2223 0 0.3175 0.09525 0.1059 0.08467 0.1165 0.34925 0 0.26458 0.011 0.39158 0.3387-0.42333 0.6668-0.60325 0.3281-0.1905 0.6985-0.1905 0.5927 0 0.9631 0.47625 0.381 0.47625 0.381 1.2488zm-2.7305 2.2648q0.381-0.08467 0.6985-0.41275 0.3281-0.33867 0.5186-0.8255 0.1905-0.49742 0.1905-1.0372 0-0.3175-0.127-0.47625-0.127-0.16933-0.3387-0.16933-0.381 0-0.9208 0.80433-0.011 0.46567-0.011 1.3652 0 0.48683-0.011 0.75142zm-2.0214 4.7625q0.2857 0 0.4762-1.2488 0.1905-1.2382 0.2434-3.0903-0.4551 1.0583-0.7196 2.0214-0.2646 0.96308-0.2646 1.6192 0 0.33867 0.085 0.51858 0.074 0.17992 0.18 0.17992z" style="font-feature-settings:normal;font-variant-caps:normal;font-variant-ligatures:normal;font-variant-numeric:normal"/>
			</g>
		</g>
	</g>
</svg>
