<?xml version="1.0" encoding="UTF-8" standalone="no"?>
<!-- Created with Inkscape (http://www.inkscape.org/) -->

<svg
   xmlns:dc="http://purl.org/dc/elements/1.1/"
   xmlns:cc="http://creativecommons.org/ns#"
   xmlns:rdf="http://www.w3.org/1999/02/22-rdf-syntax-ns#"
   xmlns:svg="http://www.w3.org/2000/svg"
   xmlns="http://www.w3.org/2000/svg"
   xmlns:sodipodi="http://sodipodi.sourceforge.net/DTD/sodipodi-0.dtd"
   xmlns:inkscape="http://www.inkscape.org/namespaces/inkscape"
   width="105.70184mm"
   height="105.70184mm"
   viewBox="0 0 105.70184 105.70184"
   version="1.1"
   id="svg8"
   inkscape:version="0.92.4 5da689c313, 2019-01-14"
   sodipodi:docname="logo.svg">
  <defs
     id="defs2">
    <inkscape:path-effect
       effect="skeletal"
       id="path-effect2341"
       is_visible="true"
       pattern="M 0,5 C 0,2.24 2.24,0 5,0 7.76,0 10,2.24 10,5 10,7.76 7.76,10 5,10 2.24,10 0,7.76 0,5 Z"
       copytype="single_stretched"
       prop_scale="0.26458333"
       scale_y_rel="false"
       spacing="0"
       normal_offset="0"
       tang_offset="0"
       prop_units="false"
       vertical_pattern="false"
       fuse_tolerance="0" />
    <inkscape:path-effect
       effect="spiro"
       id="path-effect2339"
       is_visible="true" />
    <inkscape:path-effect
       effect="skeletal"
       id="path-effect2325"
       is_visible="true"
       pattern="M 0,5 C 0,2.24 2.24,0 5,0 7.76,0 10,2.24 10,5 10,7.76 7.76,10 5,10 2.24,10 0,7.76 0,5 Z"
       copytype="single_stretched"
       prop_scale="0.26458333"
       scale_y_rel="false"
       spacing="0"
       normal_offset="0"
       tang_offset="0"
       prop_units="false"
       vertical_pattern="false"
       fuse_tolerance="0" />
    <inkscape:path-effect
       effect="spiro"
       id="path-effect2323"
       is_visible="true" />
    <inkscape:path-effect
       effect="skeletal"
       id="path-effect2319"
       is_visible="true"
       pattern="M 0,5 C 0,2.24 2.24,0 5,0 7.76,0 10,2.24 10,5 10,7.76 7.76,10 5,10 2.24,10 0,7.76 0,5 Z"
       copytype="single_stretched"
       prop_scale="0.26458333"
       scale_y_rel="false"
       spacing="0"
       normal_offset="0"
       tang_offset="0"
       prop_units="false"
       vertical_pattern="false"
       fuse_tolerance="0" />
    <inkscape:path-effect
       effect="spiro"
       id="path-effect2317"
       is_visible="true" />
    <inkscape:path-effect
       effect="skeletal"
       id="path-effect2313"
       is_visible="true"
       pattern="M 0,5 C 0,2.24 2.24,0 5,0 7.76,0 10,2.24 10,5 10,7.76 7.76,10 5,10 2.24,10 0,7.76 0,5 Z"
       copytype="single_stretched"
       prop_scale="0.26458333"
       scale_y_rel="false"
       spacing="0"
       normal_offset="0"
       tang_offset="0"
       prop_units="false"
       vertical_pattern="false"
       fuse_tolerance="0" />
  </defs>
  <sodipodi:namedview
     id="base"
     pagecolor="#ffffff"
     bordercolor="#666666"
     borderopacity="1.0"
     inkscape:pageopacity="0.0"
     inkscape:pageshadow="2"
     inkscape:zoom="2"
     inkscape:cx="300.3658"
     inkscape:cy="200.6924"
     inkscape:document-units="px"
     inkscape:current-layer="layer1"
     showgrid="false"
     showborder="true"
     inkscape:snap-nodes="true"
     inkscape:snap-others="true"
     inkscape:snap-bbox="false"
     inkscape:object-paths="true"
     inkscape:object-nodes="true"
     inkscape:snap-grids="false"
     inkscape:snap-intersection-paths="true"
     inkscape:snap-smooth-nodes="true"
     inkscape:snap-midpoints="true"
     objecttolerance="27"
     inkscape:window-width="1900"
     inkscape:window-height="1180"
     inkscape:window-x="10"
     inkscape:window-y="10"
     inkscape:window-maximized="0"
     showguides="false"
     inkscape:snap-global="false">
    <sodipodi:guide
       position="4011.7406,548.01553"
       orientation="0,-1057.1669"
       id="guide1021"
       inkscape:locked="false" />
    <sodipodi:guide
       position="3732.0318,548.01553"
       orientation="653.36668,0"
       id="guide1023"
       inkscape:locked="false" />
    <sodipodi:guide
       position="3732.0318,375.1456"
       orientation="0,1057.1669"
       id="guide1025"
       inkscape:locked="false" />
    <sodipodi:guide
       position="4011.7406,375.1456"
       orientation="-653.36668,0"
       id="guide1027"
       inkscape:locked="false" />
    <sodipodi:guide
       position="4011.7406,375.14542"
       orientation="0,-1057.1669"
       id="guide1029"
       inkscape:locked="false" />
    <sodipodi:guide
       position="3732.0318,375.14542"
       orientation="1057.1669,0"
       id="guide1031"
       inkscape:locked="false" />
    <sodipodi:guide
       position="3732.0318,95.43668"
       orientation="0,1057.1669"
       id="guide1033"
       inkscape:locked="false" />
    <sodipodi:guide
       position="4011.7406,95.43668"
       orientation="-1057.1669,0"
       id="guide1035"
       inkscape:locked="false" />
    <sodipodi:guide
       position="4464.3192,548.01522"
       orientation="0,-1710.5331"
       id="guide1037"
       inkscape:locked="false" />
    <sodipodi:guide
       position="4011.7406,548.01522"
       orientation="1710.5333,0"
       id="guide1039"
       inkscape:locked="false" />
    <sodipodi:guide
       position="4011.7406,95.43661"
       orientation="-4.5474735e-13,1710.5331"
       id="guide1041"
       inkscape:locked="false" />
    <sodipodi:guide
       position="4464.3192,95.43661"
       orientation="-1710.5333,0"
       id="guide1043"
       inkscape:locked="false" />
    <sodipodi:guide
       position="3732.0319,548.01558"
       orientation="0,2767.7002"
       id="guide1045"
       inkscape:locked="false" />
    <sodipodi:guide
       position="4464.3192,548.01558"
       orientation="-2767.7002,0"
       id="guide1047"
       inkscape:locked="false" />
    <sodipodi:guide
       position="4464.3192,1280.3029"
       orientation="-9.094947e-13,-2767.7002"
       id="guide1049"
       inkscape:locked="false" />
    <sodipodi:guide
       position="3732.0319,1280.3029"
       orientation="2767.7002,0"
       id="guide1051"
       inkscape:locked="false" />
    <sodipodi:guide
       position="3732.0317,1280.3028"
       orientation="0,-4478.7904"
       id="guide1053"
       inkscape:locked="false" />
    <sodipodi:guide
       position="2547.0184,1280.3028"
       orientation="4478.79,0"
       id="guide1055"
       inkscape:locked="false" />
    <sodipodi:guide
       position="2547.0184,95.28964"
       orientation="0,4478.7904"
       id="guide1057"
       inkscape:locked="false" />
    <sodipodi:guide
       position="3732.0317,95.28964"
       orientation="-4478.79,0"
       id="guide1059"
       inkscape:locked="false" />
    <sodipodi:guide
       position="3945.7154,441.18474"
       orientation="0,-154.22655"
       id="guide1061"
       inkscape:locked="false" />
    <sodipodi:guide
       position="3904.9096,441.18474"
       orientation="95.317482,0"
       id="guide1063"
       inkscape:locked="false" />
    <sodipodi:guide
       position="3904.9096,415.96532"
       orientation="0,154.22655"
       id="guide1065"
       inkscape:locked="false" />
    <sodipodi:guide
       position="3945.7154,415.96532"
       orientation="-95.317482,0"
       id="guide1067"
       inkscape:locked="false" />
    <sodipodi:guide
       position="3945.7154,415.96529"
       orientation="0,-154.22655"
       id="guide1069"
       inkscape:locked="false" />
    <sodipodi:guide
       position="3904.9096,415.96529"
       orientation="154.22655,0"
       id="guide1071"
       inkscape:locked="false" />
    <sodipodi:guide
       position="3904.9096,375.15952"
       orientation="0,154.22655"
       id="guide1073"
       inkscape:locked="false" />
    <sodipodi:guide
       position="3945.7154,375.15952"
       orientation="-154.22655,0"
       id="guide1075"
       inkscape:locked="false" />
    <sodipodi:guide
       position="4011.7405,441.18469"
       orientation="0,-249.54396"
       id="guide1077"
       inkscape:locked="false" />
    <sodipodi:guide
       position="3945.7154,441.18469"
       orientation="249.544,0"
       id="guide1079"
       inkscape:locked="false" />
    <sodipodi:guide
       position="3945.7154,375.15951"
       orientation="0,249.54396"
       id="guide1081"
       inkscape:locked="false" />
    <sodipodi:guide
       position="4011.7405,375.15951"
       orientation="-249.544,0"
       id="guide1083"
       inkscape:locked="false" />
    <sodipodi:guide
       position="3904.9096,441.18474"
       orientation="0,403.77054"
       id="guide1085"
       inkscape:locked="false" />
    <sodipodi:guide
       position="4011.7405,441.18474"
       orientation="-403.77054,0"
       id="guide1087"
       inkscape:locked="false" />
    <sodipodi:guide
       position="4011.7405,548.01569"
       orientation="0,-403.77054"
       id="guide1089"
       inkscape:locked="false" />
    <sodipodi:guide
       position="3904.9096,548.01569"
       orientation="403.77054,0"
       id="guide1091"
       inkscape:locked="false" />
    <sodipodi:guide
       position="3904.9096,548.01568"
       orientation="0,-653.39578"
       id="guide1093"
       inkscape:locked="false" />
    <sodipodi:guide
       position="3732.0319,548.01568"
       orientation="653.39572,0"
       id="guide1095"
       inkscape:locked="false" />
    <sodipodi:guide
       position="3732.0319,375.13807"
       orientation="0,653.39578"
       id="guide1097"
       inkscape:locked="false" />
    <sodipodi:guide
       position="3904.9096,375.13807"
       orientation="-653.39572,0"
       id="guide1099"
       inkscape:locked="false" />
  </sodipodi:namedview>
  <metadata
     id="metadata5">
    <rdf:RDF>
      <cc:Work
         rdf:about="">
        <dc:format>image/svg+xml</dc:format>
        <dc:type
           rdf:resource="http://purl.org/dc/dcmitype/StillImage" />
        <dc:title></dc:title>
      </cc:Work>
    </rdf:RDF>
  </metadata>
  <g
     inkscape:label="Layer 1"
     inkscape:groupmode="layer"
     id="layer1"
     transform="translate(8387.4847,-80.516729)">
    <g
       id="g2419">
      <circle
         r="52.725677"
         cy="133.36765"
         cx="-8334.6338"
         id="path2143"
         style="fill:#393f74;fill-opacity:0.98611109;stroke:#8d3030;stroke-width:0.25047827;stroke-miterlimit:4;stroke-dasharray:none;stroke-dashoffset:0;stroke-opacity:1" />
      <g
         style="fill:#e08cdc;fill-opacity:1"
         id="g2402">
        <g
           id="g2268"
           transform="matrix(3.2203033,0,0,3.2203033,18936.573,-117.29184)"
           style="fill:#e08cdc;fill-opacity:1">
          <path
             d="m -8477.9907,74.983077 q -0.9419,0 -1.7039,-0.423334 -0.7515,-0.423333 -1.196,-1.23825 -0.4445,-0.8255 -0.4445,-1.9685 0,-1.608666 0.5821,-2.836333 0.5927,-1.227667 1.5981,-1.894417 1.016,-0.66675 2.2437,-0.66675 0.9419,0 1.6933,0.423334 0.762,0.423333 1.2065,1.248833 0.4445,0.814917 0.4445,1.957917 0,1.608666 -0.5927,2.836333 -0.582,1.227667 -1.598,1.894417 -1.0055,0.66675 -2.2331,0.66675 z m 0.1058,-1.248834 q 0.8255,0 1.4499,-0.508 0.635,-0.508 0.9737,-1.407583 0.3387,-0.910167 0.3387,-2.053167 0,-1.259416 -0.5292,-1.905 -0.5292,-0.656166 -1.3653,-0.656166 -0.8149,0 -1.4393,0.508 -0.6244,0.497416 -0.9737,1.407583 -0.3492,0.899583 -0.3492,2.053167 0,1.259416 0.5292,1.915583 0.5291,0.645583 1.3652,0.645583 z"
             style="font-style:normal;font-variant:normal;font-weight:normal;font-stretch:normal;font-size:40px;line-height:1.25;font-family:Pacifico;-inkscape-font-specification:'Pacifico, Normal';font-variant-ligatures:normal;font-variant-caps:normal;font-variant-numeric:normal;font-feature-settings:normal;text-align:start;letter-spacing:0px;word-spacing:0px;writing-mode:lr-tb;text-anchor:start;fill:#e08cdc;fill-opacity:1;stroke:none;stroke-width:0.26458332"
             id="path2234"
             inkscape:connector-curvature="0" />
          <path
             d="m -8467.0687,72.570077 q 0.1376,0 0.2116,0.127 0.085,0.127 0.085,0.34925 0,0.423333 -0.2011,0.656166 -0.4339,0.529167 -0.9525,0.910167 -0.5186,0.370417 -1.0266,0.370417 -0.8043,0 -1.2276,-0.941917 -0.4445,0.560917 -0.7832,0.751417 -0.3281,0.1905 -0.7726,0.1905 -0.6456,0 -1.0689,-0.47625 -0.4127,-0.486834 -0.4127,-1.259417 0,-0.846667 0.3598,-1.566333 0.3598,-0.73025 0.9842,-1.185334 0.635,-0.465666 1.4182,-0.550333 0.2011,-2.053167 0.762,-3.503083 0.5715,-1.4605 1.4923,-1.4605 0.455,0 0.7514,0.41275 0.3069,0.41275 0.3069,1.248833 0,1.185333 -0.5821,2.772833 -0.5821,1.5875 -1.5557,3.259667 0.042,0.613833 0.1799,0.878417 0.1481,0.264583 0.3704,0.264583 0.2857,0 0.5821,-0.254 0.2963,-0.254 0.7937,-0.846667 0.127,-0.148166 0.2858,-0.148166 z m -1.2489,-6.551084 q -0.201,0 -0.4021,0.719667 -0.2011,0.709083 -0.3493,1.862667 -0.1376,1.153583 -0.2011,2.413 1.1854,-2.582334 1.1854,-4.148667 0,-0.402167 -0.074,-0.624417 -0.064,-0.22225 -0.1588,-0.22225 z m -3.048,7.895167 q 0.2011,0 0.4022,-0.15875 0.2011,-0.169333 0.508,-0.613833 -0.1058,-0.5715 -0.1058,-1.280584 0,-0.254 0.021,-0.8255 -0.582,0.179917 -0.9736,0.783167 -0.381,0.592667 -0.381,1.322917 0,0.772583 0.5291,0.772583 z"
             style="font-style:normal;font-variant:normal;font-weight:normal;font-stretch:normal;font-size:40px;line-height:1.25;font-family:Pacifico;-inkscape-font-specification:'Pacifico, Normal';font-variant-ligatures:normal;font-variant-caps:normal;font-variant-numeric:normal;font-feature-settings:normal;text-align:start;letter-spacing:0px;word-spacing:0px;writing-mode:lr-tb;text-anchor:start;fill:#e08cdc;fill-opacity:1;stroke:none;stroke-width:0.26458332"
             id="path2236"
             inkscape:connector-curvature="0" />
          <path
             d="m -8463.8831,72.570077 q 0.1164,0.867833 0.3386,1.7145 0.042,0.137583 0.042,0.28575 0,0.47625 -0.5821,0.47625 -0.3281,0 -0.508,-0.179917 -0.1694,-0.179917 -0.3175,-0.677333 l -0.011,-0.04233 q -0.4022,0.497417 -0.7303,0.66675 -0.3175,0.169334 -0.7408,0.169334 -0.6456,0 -1.0689,-0.47625 -0.4128,-0.486834 -0.4128,-1.259417 0,-0.846667 0.3599,-1.566333 0.3598,-0.719667 0.9842,-1.17475 0.6244,-0.465667 1.397,-0.560917 0.2011,-2.00025 0.762,-3.481917 0.5715,-1.481666 1.5134,-1.481666 0.4551,0 0.7515,0.41275 0.3069,0.41275 0.3069,1.248833 0,1.164167 -0.5715,2.719917 -0.5715,1.55575 -1.5134,3.20675 z m 0.9101,-6.551084 q -0.3069,0 -0.5821,1.566334 -0.2645,1.566333 -0.3598,3.407833 1.1748,-2.54 1.1748,-4.1275 0,-0.402167 -0.074,-0.624417 -0.063,-0.22225 -0.1588,-0.22225 z m -3.048,7.895167 q 0.2117,0 0.4022,-0.15875 0.2011,-0.15875 0.508,-0.613833 -0.1058,-0.772584 -0.1058,-1.598084 0,-0.328083 0.011,-0.508 -0.582,0.169334 -0.963,0.772584 -0.381,0.60325 -0.381,1.3335 0,0.772583 0.5291,0.772583 z"
             style="font-style:normal;font-variant:normal;font-weight:normal;font-stretch:normal;font-size:40px;line-height:1.25;font-family:Pacifico;-inkscape-font-specification:'Pacifico, Normal';font-variant-ligatures:normal;font-variant-caps:normal;font-variant-numeric:normal;font-feature-settings:normal;text-align:start;letter-spacing:0px;word-spacing:0px;writing-mode:lr-tb;text-anchor:start;fill:#e08cdc;fill-opacity:1;stroke:none;stroke-width:0.26458332"
             id="path2238"
             inkscape:connector-curvature="0" />
        </g>
        <g
           id="g2273"
           transform="matrix(2.5183247,0,0,2.5183247,12978.74,-34.627398)"
           style="fill:#e08cdc;fill-opacity:1">
          <path
             d="m -8451.5112,68.622493 q 0,0.899584 -0.4657,1.651 -0.4657,0.751417 -1.3547,1.227667 -0.889,0.47625 -2.1166,0.560917 l -0.4551,2.550583 q -0.2646,1.471083 -1.4393,1.471083 -0.6456,0 -1.196,-0.381 -0.5397,-0.381 -0.8678,-1.164166 -0.3281,-0.783167 -0.3281,-1.926167 0,-2.148417 0.6879,-3.640667 0.6985,-1.502833 1.8627,-2.243666 1.1748,-0.751417 2.5823,-0.751417 0.9949,0 1.6828,0.34925 0.6985,0.34925 1.0477,0.9525 0.3599,0.592667 0.3599,1.344083 z m -3.7465,2.3495 q 2.1696,-0.275166 2.1696,-2.25425 0,-0.6985 -0.4657,-1.132416 -0.4551,-0.4445 -1.4182,-0.4445 -1.0901,0 -1.905,0.687916 -0.8043,0.687917 -1.2488,1.915584 -0.4339,1.217083 -0.4339,2.783416 0,0.656167 0.127,1.164167 0.1376,0.508 0.3386,0.79375 0.2117,0.275167 0.4022,0.275167 0.2646,0 0.4022,-0.73025 l 0.3492,-2.00025 q -0.4127,-0.0635 -0.3598,-0.05292 -0.3175,-0.05292 -0.4128,-0.1905 -0.095,-0.148167 -0.095,-0.370417 0,-0.232833 0.127,-0.370416 0.1376,-0.137584 0.3704,-0.137584 0.1058,0 0.1588,0.01058 0.254,0.04233 0.3915,0.05292 0.1376,-0.8255 0.3916,-2.211916 0.064,-0.359834 0.2858,-0.508 0.2328,-0.15875 0.5397,-0.15875 0.3493,0 0.4974,0.137583 0.1588,0.127 0.1588,0.41275 0,0.169333 -0.021,0.275167 z"
             style="font-style:normal;font-variant:normal;font-weight:normal;font-stretch:normal;font-size:40px;line-height:1.25;font-family:Pacifico;-inkscape-font-specification:'Pacifico, Normal';font-variant-ligatures:normal;font-variant-caps:normal;font-variant-numeric:normal;font-feature-settings:normal;text-align:start;letter-spacing:0px;word-spacing:0px;writing-mode:lr-tb;text-anchor:start;fill:#e08cdc;fill-opacity:1;stroke:none;stroke-width:0.26458332"
             id="path2240"
             inkscape:connector-curvature="0" />
          <path
             d="m -8450.4423,69.299827 q -0.4445,0 -0.6668,-0.201084 -0.2222,-0.211666 -0.2222,-0.582083 0,-0.370417 0.2857,-0.613833 0.2964,-0.254 0.7303,-0.254 0.3916,0 0.635,0.1905 0.2434,0.1905 0.2434,0.53975 0,0.423333 -0.2752,0.677333 -0.2751,0.243417 -0.7302,0.243417 z m -0.085,5.68325 q -0.6879,0 -1.0054,-0.486834 -0.3069,-0.486833 -0.3069,-1.291166 0,-0.47625 0.1164,-1.217084 0.127,-0.751416 0.3175,-1.397 0.095,-0.338666 0.254,-0.465666 0.1588,-0.127 0.508,-0.127 0.5398,0 0.5398,0.359833 0,0.264583 -0.2011,1.227667 -0.254,1.164166 -0.254,1.576916 0,0.3175 0.085,0.486834 0.085,0.169333 0.2858,0.169333 0.1905,0 0.4762,-0.264583 0.2858,-0.264584 0.762,-0.836084 0.127,-0.148166 0.2858,-0.148166 0.1376,0 0.2117,0.127 0.085,0.127 0.085,0.34925 0,0.423333 -0.2011,0.656166 -1.0477,1.280584 -1.9579,1.280584 z"
             style="font-style:normal;font-variant:normal;font-weight:normal;font-stretch:normal;font-size:40px;line-height:1.25;font-family:Pacifico;-inkscape-font-specification:'Pacifico, Normal';font-variant-ligatures:normal;font-variant-caps:normal;font-variant-numeric:normal;font-feature-settings:normal;text-align:start;letter-spacing:0px;word-spacing:0px;writing-mode:lr-tb;text-anchor:start;fill:#e08cdc;fill-opacity:1;stroke:none;stroke-width:0.26458332"
             id="path2242"
             inkscape:connector-curvature="0" />
          <path
             d="m -8445.4364,72.887577 q 0.1376,0 0.2117,0.127 0.085,0.127 0.085,0.34925 0,0.381 -0.1799,0.656166 -0.2963,0.455084 -0.7831,0.709084 -0.4763,0.254 -1.143,0.254 -1.016,0 -1.577,-0.60325 -0.5609,-0.613834 -0.5609,-1.651 0,-0.73025 0.3069,-1.354667 0.307,-0.635 0.8467,-1.005417 0.5503,-0.370416 1.2383,-0.370416 0.6138,0 0.9842,0.370416 0.3704,0.359834 0.3704,0.98425 0,0.73025 -0.5291,1.259417 -0.5186,0.518583 -1.778,0.8255 0.254,0.486833 0.8572,0.486833 0.4339,0 0.7091,-0.201083 0.2857,-0.201083 0.6562,-0.677333 0.127,-0.15875 0.2857,-0.15875 z m -1.7357,-1.852084 q -0.3915,0 -0.6667,0.455084 -0.2646,0.455083 -0.2646,1.100666 v 0.02117 q 0.6244,-0.148167 0.9843,-0.4445 0.3598,-0.296333 0.3598,-0.687917 0,-0.201083 -0.1164,-0.3175 -0.1059,-0.127 -0.2964,-0.127 z"
             style="font-style:normal;font-variant:normal;font-weight:normal;font-stretch:normal;font-size:40px;line-height:1.25;font-family:Pacifico;-inkscape-font-specification:'Pacifico, Normal';font-variant-ligatures:normal;font-variant-caps:normal;font-variant-numeric:normal;font-feature-settings:normal;text-align:start;letter-spacing:0px;word-spacing:0px;writing-mode:lr-tb;text-anchor:start;fill:#e08cdc;fill-opacity:1;stroke:none;stroke-width:0.26458332"
             id="path2244"
             inkscape:connector-curvature="0" />
        </g>
        <g
           id="g2279"
           transform="matrix(1.7337152,0,0,1.7337152,6270.913,43.338525)"
           style="fill:#e08cdc;fill-opacity:1">
          <path
             d="m -8439.1181,75.014827 q -1.4076,0 -2.2543,-0.529167 -0.8467,-0.53975 -0.8467,-1.640417 0,-0.582083 0.2011,-0.889 0.2011,-0.306916 0.5927,-0.306916 0.2857,0 0.4657,0.148166 0.1799,0.148167 0.1799,0.381 0,0.211667 -0.032,0.370417 0,0.04233 -0.021,0.148167 -0.011,0.105833 -0.011,0.22225 0,0.47625 0.4762,0.709083 0.4869,0.232833 1.3547,0.232833 0.8996,0 1.4076,-0.3175 0.508,-0.328083 0.508,-0.910166 0,-0.359834 -0.2329,-0.613834 -0.2328,-0.264583 -0.582,-0.433916 -0.3493,-0.179917 -0.9843,-0.433917 -0.8149,-0.3175 -1.3335,-0.60325 -0.508,-0.28575 -0.8784,-0.772583 -0.3598,-0.497417 -0.3598,-1.227667 0,-0.762 0.4021,-1.354667 0.4128,-0.592666 1.1748,-0.92075 0.7726,-0.328083 1.8097,-0.328083 0.7726,0 1.4182,0.232833 0.6456,0.22225 1.0266,0.687917 0.3916,0.465667 0.3916,1.143 0,0.66675 -0.2011,1.005417 -0.2011,0.338666 -0.5927,0.338666 -0.2752,0 -0.4657,-0.169333 -0.1799,-0.169333 -0.1799,-0.402167 0,-0.201083 0.032,-0.370416 0.032,-0.3175 0.032,-0.402167 0,-0.4445 -0.4339,-0.677333 -0.4339,-0.232834 -1.0795,-0.232834 -0.9102,0 -1.397,0.338667 -0.4762,0.328083 -0.4762,0.931333 0,0.402167 0.2434,0.687917 0.254,0.28575 0.6244,0.47625 0.3704,0.1905 1.0372,0.455083 0.8043,0.328084 1.2911,0.592667 0.4869,0.264583 0.8255,0.719667 0.3493,0.455083 0.3493,1.121833 0,1.248833 -0.9525,1.926167 -0.9419,0.66675 -2.5294,0.66675 z"
             style="font-style:normal;font-variant:normal;font-weight:normal;font-stretch:normal;font-size:40px;line-height:1.25;font-family:Pacifico;-inkscape-font-specification:'Pacifico, Normal';font-variant-ligatures:normal;font-variant-caps:normal;font-variant-numeric:normal;font-feature-settings:normal;text-align:start;letter-spacing:0px;word-spacing:0px;writing-mode:lr-tb;text-anchor:start;fill:#e08cdc;fill-opacity:1;stroke:none;stroke-width:0.26458332"
             id="path2246"
             inkscape:connector-curvature="0" />
          <path
             d="m -8428.9687,72.570077 q 0.1376,0 0.2116,0.127 0.085,0.127 0.085,0.34925 0,0.423333 -0.2011,0.656166 -0.4868,0.560917 -1.0054,0.92075 -0.508,0.359834 -1.1642,0.359834 -0.5397,0 -0.8149,-0.306917 -0.2751,-0.3175 -0.2751,-0.910167 0,-0.296333 0.1481,-1.058333 0.1376,-0.66675 0.1376,-0.92075 0,-0.169333 -0.1164,-0.169333 -0.1376,0 -0.3916,0.359833 -0.254,0.34925 -0.508,0.931333 -0.254,0.582084 -0.4127,1.227667 -0.2011,0.846667 -0.9949,0.846667 -0.3175,0 -0.4233,-0.22225 -0.095,-0.232834 -0.095,-0.8255 0,-0.338667 0.011,-0.53975 l 0.011,-0.846667 q 0,-1.629833 0.3281,-3.39725 0.3387,-1.767417 0.9842,-2.963333 0.6562,-1.2065 1.5664,-1.2065 0.4868,0 0.7831,0.423333 0.307,0.41275 0.307,1.0795 0,1.068917 -0.6245,2.2225 -0.6244,1.143 -2.032,2.677583 -0.032,0.550334 -0.032,1.132417 0.3492,-0.899583 0.7726,-1.4605 0.4339,-0.5715 0.8466,-0.814917 0.4234,-0.243416 0.7726,-0.243416 0.6879,0 0.6879,0.687916 0,0.41275 -0.2328,1.49225 -0.2011,0.92075 -0.2011,1.217084 0,0.423333 0.3069,0.423333 0.2117,0 0.4975,-0.254 0.2963,-0.264583 0.7831,-0.846667 0.127,-0.148166 0.2858,-0.148166 z m -3.1433,-6.5405 q -0.1905,0 -0.4233,0.550333 -0.2328,0.53975 -0.4551,1.471083 -0.2117,0.92075 -0.3492,2.010834 0.6561,-0.772584 1.0795,-1.68275 0.4339,-0.910167 0.4339,-1.651 0,-0.338667 -0.074,-0.518584 -0.074,-0.179916 -0.2117,-0.179916 z"
             style="font-style:normal;font-variant:normal;font-weight:normal;font-stretch:normal;font-size:40px;line-height:1.25;font-family:Pacifico;-inkscape-font-specification:'Pacifico, Normal';font-variant-ligatures:normal;font-variant-caps:normal;font-variant-numeric:normal;font-feature-settings:normal;text-align:start;letter-spacing:0px;word-spacing:0px;writing-mode:lr-tb;text-anchor:start;fill:#e08cdc;fill-opacity:1;stroke:none;stroke-width:0.26458332"
             id="path2248"
             inkscape:connector-curvature="0" />
          <path
             d="m -8424.1321,71.681077 q 0.1375,0 0.2116,0.137583 0.074,0.137583 0.074,0.34925 0,0.508 -0.3069,0.60325 -0.635,0.22225 -1.397,0.254 -0.2011,0.889 -0.7938,1.42875 -0.5926,0.529167 -1.344,0.529167 -0.635,0 -1.0901,-0.306917 -0.4445,-0.306917 -0.6774,-0.814917 -0.2328,-0.508 -0.2328,-1.100666 0,-0.804334 0.3069,-1.42875 0.3069,-0.635 0.8467,-0.98425 0.5397,-0.359834 1.1959,-0.359834 0.8043,0 1.2912,0.560917 0.4974,0.550333 0.5821,1.36525 0.4974,-0.03175 1.1853,-0.211667 0.085,-0.02117 0.1482,-0.02117 z m -3.4714,2.180166 q 0.3387,0 0.5821,-0.275166 0.254,-0.275167 0.3387,-0.79375 -0.3281,-0.22225 -0.508,-0.582084 -0.1694,-0.359833 -0.1694,-0.762 0,-0.169333 0.032,-0.338666 h -0.053 q -0.4234,0 -0.7091,0.41275 -0.2752,0.402166 -0.2752,1.143 0,0.582083 0.2223,0.889 0.2328,0.306916 0.5397,0.306916 z"
             style="font-style:normal;font-variant:normal;font-weight:normal;font-stretch:normal;font-size:40px;line-height:1.25;font-family:Pacifico;-inkscape-font-specification:'Pacifico, Normal';font-variant-ligatures:normal;font-variant-caps:normal;font-variant-numeric:normal;font-feature-settings:normal;text-align:start;letter-spacing:0px;word-spacing:0px;writing-mode:lr-tb;text-anchor:start;fill:#e08cdc;fill-opacity:1;stroke:none;stroke-width:0.26458332"
             id="path2250"
             inkscape:connector-curvature="0" />
          <path
             d="m -8420.5658,71.702243 q 0,0.836084 -0.3916,1.5875 -0.381,0.740834 -1.0266,1.2065 -0.635,0.465667 -1.3652,0.486834 -0.1376,2.042583 -0.6245,3.407833 -0.4868,1.375833 -1.4287,1.375833 -0.5715,0 -0.8467,-0.41275 -0.2751,-0.41275 -0.2751,-1.143 0,-1.037166 0.4762,-2.423583 0.4763,-1.375833 1.4711,-3.037417 0,-1.545166 -0.021,-2.148416 -0.011,-0.306917 0.2434,-0.486834 0.254,-0.179916 0.635,-0.179916 0.2223,0 0.3175,0.09525 0.1059,0.08467 0.1165,0.34925 0,0.264583 0.011,0.391583 0.3387,-0.423333 0.6668,-0.60325 0.3281,-0.1905 0.6985,-0.1905 0.5927,0 0.9631,0.47625 0.381,0.47625 0.381,1.248833 z m -2.7305,2.264834 q 0.381,-0.08467 0.6985,-0.41275 0.3281,-0.338667 0.5186,-0.8255 0.1905,-0.497417 0.1905,-1.037167 0,-0.3175 -0.127,-0.47625 -0.127,-0.169333 -0.3387,-0.169333 -0.381,0 -0.9208,0.804333 -0.011,0.465667 -0.011,1.36525 0,0.486833 -0.011,0.751417 z m -2.0214,4.7625 q 0.2857,0 0.4762,-1.248834 0.1905,-1.23825 0.2434,-3.090333 -0.4551,1.058333 -0.7196,2.021417 -0.2646,0.963083 -0.2646,1.61925 0,0.338666 0.085,0.518583 0.074,0.179917 0.18,0.179917 z"
             style="font-style:normal;font-variant:normal;font-weight:normal;font-stretch:normal;font-size:40px;line-height:1.25;font-family:Pacifico;-inkscape-font-specification:'Pacifico, Normal';font-variant-ligatures:normal;font-variant-caps:normal;font-variant-numeric:normal;font-feature-settings:normal;text-align:start;letter-spacing:0px;word-spacing:0px;writing-mode:lr-tb;text-anchor:start;fill:#e08cdc;fill-opacity:1;stroke:none;stroke-width:0.26458332"
             id="path2252"
             inkscape:connector-curvature="0" />
        </g>
      </g>
    </g>
  </g>
</svg>
